<svg width="252" height="40" viewBox="0 0 252 40" fill="none" xmlns="http://www.w3.org/2000/svg">
<path d="M18.813 12.0469V7.82227H2.89453V23.7554H7.51711V12.0469H18.813Z" fill="black"/>
<path d="M31.9679 7.82227L0 39.8223H6.05611L38 7.84768L31.9679 7.82227Z" fill="black"/>
<path d="M19.2422 35.5307V39.7554H35.1594V23.8223H30.5381V35.5307H19.2422Z" fill="black"/>
<path d="M65.134 14.264H62.094V22.168H65.21C66.6793 22.168 67.8953 21.8767 68.858 21.294C69.8207 20.686 70.302 19.698 70.302 18.33C70.302 16.886 69.846 15.8473 68.934 15.214C68.022 14.5807 66.7553 14.264 65.134 14.264ZM72.202 36L66.73 26.12C66.4513 26.1453 66.16 26.1707 65.856 26.196C65.552 26.196 65.248 26.196 64.944 26.196H62.094V36H57.192V10.16H65.286C68.098 10.16 70.5047 10.806 72.506 12.098C74.5073 13.39 75.508 15.3913 75.508 18.102C75.508 19.698 75.09 21.0787 74.254 22.244C73.4433 23.384 72.392 24.2707 71.1 24.904L77.446 36H72.202ZM106.704 36H88.6162V10.16H104.044L104.804 14.036H93.5182V20.99H100.434L101.232 24.904H93.5182V32.162H105.906L106.704 36ZM118.259 30.3C119.045 30.7053 120.045 31.1107 121.261 31.516C122.477 31.9213 123.63 32.124 124.719 32.124C126.265 32.124 127.417 31.8833 128.177 31.402C128.963 30.9207 129.355 30.224 129.355 29.312C129.355 28.4507 128.836 27.6907 127.797 27.032C126.784 26.348 125.657 25.6893 124.415 25.056C122.591 24.1187 120.843 23.0167 119.171 21.75C117.499 20.4833 116.676 18.7227 116.701 16.468C116.727 14.5173 117.499 12.8833 119.019 11.566C120.565 10.2233 122.756 9.552 125.593 9.552C126.885 9.552 128.177 9.75467 129.469 10.16C130.761 10.5653 131.901 11.0087 132.889 11.49L131.255 15.442C130.47 15.062 129.621 14.7073 128.709 14.378C127.797 14.0233 126.784 13.846 125.669 13.846C124.58 13.846 123.655 14.0613 122.895 14.492C122.161 14.9227 121.793 15.5813 121.793 16.468C121.793 17.4307 122.275 18.2287 123.237 18.862C124.2 19.4953 125.34 20.1667 126.657 20.876C128.507 21.8133 130.267 22.9153 131.939 24.182C133.637 25.4487 134.473 27.184 134.447 29.388C134.422 31.44 133.586 33.1373 131.939 34.48C130.293 35.8227 127.911 36.494 124.795 36.494C123.706 36.494 122.3 36.2533 120.577 35.772C118.88 35.2907 117.74 34.7967 117.157 34.29L118.259 30.3ZM151.272 10.16V20.99L160.962 9.59L164.61 12.402L156.934 21.294L167.726 36H161.608L153.704 25.056L151.272 27.906V36H146.332V10.16H151.272ZM183.412 10.16V36H178.51V10.16H183.412ZM214.453 36H197.391V10.16H202.293V32.162H213.693L214.453 36ZM242.686 36H225.624V10.16H230.526V32.162H241.926L242.686 36Z" fill="black"/>
</svg>
